<svg xmlns="http://www.w3.org/2000/svg" width="49.327" height="46.934" viewBox="0 0 49.327 46.934"><g transform="translate(-2788.853 -3201)"><path d="M2791.8,3353.212a22.978,22.978,0,0,1,2.212-9.753c2.025-4.378,4.1-5.671,4.954-7.057a21.2,21.2,0,0,0-5.235,4.752,23.744,23.744,0,0,0-3.131,23.338,24.615,24.615,0,0,0,24.693,15.283c20.066-1.449,30.5-25.379,16.389-40.553-.9-.966-4.082-3.77-5.733-4.222a29.691,29.691,0,0,1,3.552,3.49c3.615,4.674,5.764,9.41,5.484,15.984-.717,17.106-19.677,26.064-33.059,17.418A21.812,21.812,0,0,1,2791.8,3353.212Z" transform="translate(0 -131.913)" fill="#fff" fill-rule="evenodd"/><path d="M3043.163,3236.77c.047-2.353-.514-1.5-1.994-4.487-6.247-12.681,2.321-26.158,15.159-26.267a17.376,17.376,0,0,1,15.891,10.158,18.886,18.886,0,0,1-2.2,19.069,1.333,1.333,0,0,0-.374,1.246,15.294,15.294,0,0,0,3.911-3.91c9.02-12.635-.156-31.595-17.215-31.579a20.767,20.767,0,0,0-19.194,12.775,20.05,20.05,0,0,0,2.041,18.992C3040.047,3233.934,3041.885,3236.147,3043.163,3236.77Z" transform="translate(-242.951)" fill="#259bf9" fill-rule="evenodd"/><path d="M4705,3849.551c1.309-.124,6.667-2.679,6.792-3.926l-.031-24.054-6.715-2.571Z" transform="translate(-1886.296 -608.372)" fill="#fff" fill-rule="evenodd"/><path d="M4150.031,4172.971a23.453,23.453,0,0,0,6.762,0l-.032-23.478L4150,4147Z" transform="translate(-1339.942 -931.262)" fill="#fff" fill-rule="evenodd"/><path d="M3596,4487.9c.919.467,4.176,3.225,6.762,3.49v-17.87l-6.715-2.524Z" transform="translate(-794.572 -1250.215)" fill="#fff" fill-rule="evenodd"/></g></svg>