<svg xmlns="http://www.w3.org/2000/svg" width="60.761" height="60.463" viewBox="0 0 60.761 60.463"><g transform="translate(0 0)"><path d="M55.572,59.968,68.048,72.443a1.955,1.955,0,0,0,2.757,0l2.114-2.114a1.955,1.955,0,0,0,0-2.757L60.443,55.1a1.955,1.955,0,0,0-2.757,0l-2.114,2.114A1.955,1.955,0,0,0,55.572,59.968Z" transform="translate(-12.726 -12.548)" fill="#2876dd"/><path d="M11.229,45.165A24.551,24.551,0,0,0,38.476,4.316,24.2,24.2,0,0,0,24.853.2,24.545,24.545,0,0,0,11.229,45.165ZM6.505,12.525a22.049,22.049,0,1,1,6.133,30.562A22,22,0,0,1,6.505,12.525Z" transform="translate(-0.294 -0.203)" fill="#2876dd"/><path d="M39.594,34.927a3.791,3.791,0,0,1-1.126,2.918A4.166,4.166,0,0,1,35.482,38.9H22.065a4.268,4.268,0,0,1-2.987-1.057,3.791,3.791,0,0,1-1.126-2.918c0-.551.023-1.08.046-1.585.046-.528.115-1.08.207-1.677a16.269,16.269,0,0,1,.414-1.677,7.819,7.819,0,0,1,.666-1.493,5.266,5.266,0,0,1,.965-1.241,4.24,4.24,0,0,1,1.31-.827,4.521,4.521,0,0,1,1.723-.3,2.149,2.149,0,0,1,.643.322c.345.23.712.459,1.149.735a6.978,6.978,0,0,0,1.654.735,6.334,6.334,0,0,0,2.045.322,6.91,6.91,0,0,0,2.045-.322,7.056,7.056,0,0,0,1.654-.735c.437-.276.8-.528,1.149-.735a1.668,1.668,0,0,1,.643-.322,4.686,4.686,0,0,1,1.723.3,3.76,3.76,0,0,1,1.31.827,5.942,5.942,0,0,1,.965,1.241,7.823,7.823,0,0,1,.666,1.493,14.923,14.923,0,0,1,.414,1.677,11.514,11.514,0,0,1,.207,1.677C39.571,33.87,39.594,34.4,39.594,34.927Zm-6.663-17.9a5.935,5.935,0,0,1,0,8.363,5.935,5.935,0,0,1-8.363,0,5.935,5.935,0,0,1,0-8.363,5.935,5.935,0,0,1,8.363,0Z" transform="translate(-4.306 -3.635)" fill="none" stroke="#0f2741" stroke-width="4.031" fill-rule="evenodd"/></g></svg>