<svg xmlns="http://www.w3.org/2000/svg" width="58.685" height="59.949" viewBox="0 0 58.685 59.949"><g transform="translate(0 0)"><path d="M54.971,59.617,67.338,71.985a1.909,1.909,0,0,0,2.714,0l2.1-2.1a1.909,1.909,0,0,0,0-2.714L59.785,54.8a1.909,1.909,0,0,0-2.714,0l-2.1,2.1A1.909,1.909,0,0,0,54.971,59.617Z" transform="translate(-14.035 -12.602)" fill="#2876dd"/><path d="M11.022,44.967a24.347,24.347,0,1,0-6.75-33.774A24.311,24.311,0,0,0,11.022,44.967ZM6.4,12.62A21.809,21.809,0,0,1,24.523,2.91a21.8,21.8,0,0,1,0,43.59A21.779,21.779,0,0,1,6.4,12.62Z" transform="translate(-0.18 -0.36)" fill="#2876dd"/><rect width="6.514" height="12.249" transform="translate(36.138 35.334) rotate(180)" fill="#0f2741"/><rect width="6.514" height="8.827" transform="translate(26.972 35.32) rotate(180)" fill="#0f2741"/><rect width="6.514" height="14.562" transform="translate(17.806 35.324) rotate(180)" fill="#0f2741"/><ellipse cx="2.384" cy="2.384" rx="2.384" ry="2.384" transform="translate(11.942 11.423)" fill="none" stroke="#0f2741" stroke-width="2.353"/><ellipse cx="2.384" cy="2.384" rx="2.384" ry="2.384" transform="translate(21.352 16.427)" fill="none" stroke="#0f2741" stroke-width="2.353"/><ellipse cx="2.384" cy="2.384" rx="2.384" ry="2.384" transform="translate(30.463 13.052)" fill="none" stroke="#0f2741" stroke-width="2.353"/><path d="M22.243,19.265l4.909,3.776" transform="translate(-5.666 -4.656)" fill="none" stroke="#2876dd" stroke-width="2.626" fill-rule="evenodd"/><path d="M34.949,23.512l4.461-1.865" transform="translate(-8.82 -5.197)" fill="none" stroke="#2876dd" stroke-width="2.626" fill-rule="evenodd"/></g></svg>