<svg xmlns="http://www.w3.org/2000/svg" width="69.301" height="65.94" viewBox="0 0 69.301 65.94"><path d="M2792.993,3360.587a32.279,32.279,0,0,1,3.108-13.7c2.845-6.151,5.756-7.968,6.96-9.915-2.255,1.116-5.91,4.793-7.355,6.676a33.359,33.359,0,0,0-4.4,32.788A34.583,34.583,0,0,0,2826,3397.907c28.192-2.036,42.857-35.656,23.026-56.975-1.269-1.357-5.734-5.3-8.055-5.932,1.817,1.8,3.108,2.5,4.991,4.9,5.078,6.566,8.1,13.22,7.7,22.457-1.007,24.033-27.644,36.619-46.446,24.471A30.643,30.643,0,0,1,2792.993,3360.587Z" transform="translate(-2788.853 -3332.067)" fill="#259bf9" fill-rule="evenodd"/><path d="M3046.206,3251.255c.066-3.305-.723-2.1-2.8-6.3-8.777-17.817,3.261-36.75,21.3-36.9a24.412,24.412,0,0,1,22.326,14.271,26.533,26.533,0,0,1-3.086,26.791,1.873,1.873,0,0,0-.526,1.75c1.73-.853,4.29-3.831,5.494-5.494,12.673-17.752-.219-44.389-24.186-44.367a29.177,29.177,0,0,0-26.966,17.948c-3.612,8.3-2.539,19.349,2.867,26.682C3041.828,3247.271,3044.411,3250.379,3046.206,3251.255Z" transform="translate(-3030.246 -3201)" fill="#fff" fill-rule="evenodd"/><path d="M4705,3861.922c1.838-.174,9.367-3.764,9.543-5.516l-.044-33.794-9.435-3.611Z" transform="translate(-4663.061 -3805.473)" fill="#259bf9" fill-rule="evenodd"/><path d="M4150.043,4183.488a32.947,32.947,0,0,0,9.5,0l-.045-32.985-9.5-3.5Z" transform="translate(-4120.208 -4126.294)" fill="#259bf9" fill-rule="evenodd"/><path d="M3596,4494.749c1.292.656,5.866,4.53,9.5,4.9v-25.105l-9.433-3.546Z" transform="translate(-3578.333 -4443.202)" fill="#259bf9" fill-rule="evenodd"/></svg>