<svg xmlns="http://www.w3.org/2000/svg" xmlns:xlink="http://www.w3.org/1999/xlink" width="29.196" height="29.194" viewBox="0 0 29.196 29.194"><defs><linearGradient id="a" x1="0.5" x2="0.5" y2="1" gradientUnits="objectBoundingBox"><stop offset="0" stop-color="#606a74"/><stop offset="1" stop-color="#0c62b8"/></linearGradient></defs><path d="M168.342,178.029a.355.355,0,0,1-.252-.1l-7.6-7.6a.356.356,0,0,1,.5-.5l7.6,7.6a.356.356,0,0,1-.251.607Z" transform="translate(-141.18 -149.184)" fill="url(#a)"/><path d="M71.159,69.15a1.873,1.873,0,0,0-1.279.505L67.75,68.1a1.858,1.858,0,0,0,0-1.606l2.129-1.559a1.888,1.888,0,1,0-.421-.574L67.33,65.917a1.882,1.882,0,1,0,0,2.754l2.129,1.559a1.881,1.881,0,1,0,1.7-1.079Zm0-6.766a1.171,1.171,0,1,1-1.171,1.171A1.172,1.172,0,0,1,71.159,62.384Zm-5.108,6.08a1.171,1.171,0,1,1,1.171-1.171A1.172,1.172,0,0,1,66.051,68.464ZM71.159,72.2a1.171,1.171,0,1,1,1.171-1.171A1.172,1.172,0,0,1,71.159,72.2Z" transform="translate(-58.654 -56.513)" fill="url(#a)"/><g transform="translate(0 0)"><path d="M46.966,36.181a10.777,10.777,0,1,0-3.159,7.627A10.715,10.715,0,0,0,46.966,36.181ZM29.056,43.3a10.074,10.074,0,1,1,14.247,0A10.086,10.086,0,0,1,29.056,43.3Z" transform="translate(-25.4 -25.401)" fill="url(#a)"/><path d="M160.487,156.671l-4.971-4.971a2.444,2.444,0,0,0-1.74-.721c-.063,0-.124,0-.186.009L152.4,149.8a.356.356,0,0,0-.5.5l.889.889a2.456,2.456,0,0,0-.748.511l-.336.336a2.442,2.442,0,0,0-.51.75l-.89-.89a.356.356,0,0,0-.5.5l1.193,1.193a2.454,2.454,0,0,0,.711,1.925l4.971,4.971a2.463,2.463,0,0,0,3.48,0l.336-.336a2.461,2.461,0,0,0,0-3.48Zm-.5,2.977-.336.336a1.752,1.752,0,0,1-2.474,0l-4.971-4.971a1.752,1.752,0,0,1,0-2.474l.336-.336a1.749,1.749,0,0,1,2.474,0l4.97,4.971a1.75,1.75,0,0,1,0,2.474Z" transform="translate(-132.012 -132.012)" fill="url(#a)"/><path d="M54.269,41.8a8.814,8.814,0,1,0,0,12.465A8.757,8.757,0,0,0,54.269,41.8Zm-.5,11.962a8.1,8.1,0,1,1,0-11.459A8.112,8.112,0,0,1,53.766,53.766Z" transform="translate(-37.256 -37.256)" fill="url(#a)"/></g></svg>