<svg xmlns="http://www.w3.org/2000/svg" xmlns:xlink="http://www.w3.org/1999/xlink" width="23.196" height="27.985" viewBox="0 0 23.196 27.985"><defs><linearGradient id="a" x1=".5" x2=".5" y2="1" gradientUnits="objectBoundingBox"><stop offset="0" stop-color="#575c60"/><stop offset="1" stop-color="#13569a"/></linearGradient></defs><g><path fill="url(#a)" d="M40.285,156.5a3.735,3.735,0,1,0,3.735,3.735A3.733,3.733,0,0,0,40.285,156.5Zm0,6.159a2.424,2.424,0,1,1,2.424-2.424A2.423,2.423,0,0,1,40.285,162.659Z" transform="translate(0 10.255) translate(-36.55 -156.5)"/></g><g><path fill="url(#a)" d="M181.039,172.5H167.705a.655.655,0,1,0,0,1.31h13.334a.655.655,0,0,0,0-1.31Z" transform="translate(8.551 11.303) translate(-167.05 -172.5)"/></g><g><path fill="url(#a)" d="M174.887,234.5h-7.181a.655.655,0,0,0,0,1.311h7.181a.655.655,0,0,0,0-1.311Z" transform="translate(8.551 15.365) translate(-167.05 -234.5)"/></g><g><path fill="url(#a)" d="M40.285,0A3.735,3.735,0,1,0,44.02,3.735,3.733,3.733,0,0,0,40.285,0Zm0,6.153a2.424,2.424,0,1,1,2.424-2.424A2.423,2.423,0,0,1,40.285,6.153Z" transform="translate(0) translate(-36.55)"/></g><g><path fill="url(#a)" d="M181.039,15.5H167.705a.655.655,0,0,0,0,1.31h13.334a.655.655,0,0,0,0-1.31Z" transform="translate(8.551 1.016) translate(-167.05 -15.5)"/></g><g><path fill="url(#a)" d="M174.887,78.5h-7.181a.655.655,0,0,0,0,1.31h7.181a.655.655,0,0,0,0-1.31Z" transform="translate(8.551 5.144) translate(-167.05 -78.5)"/></g><g><path fill="url(#a)" d="M40.285,313.1a3.735,3.735,0,1,0,3.735,3.735A3.733,3.733,0,0,0,40.285,313.1Zm0,6.153a2.424,2.424,0,1,1,2.424-2.424A2.423,2.423,0,0,1,40.285,319.253Z" transform="translate(0 20.516) translate(-36.55 -313.1)"/></g><g><path fill="url(#a)" d="M181.039,328.5H167.705a.655.655,0,0,0,0,1.31h13.334a.655.655,0,1,0,0-1.31Z" transform="translate(8.551 21.525) translate(-167.05 -328.5)"/></g><g><path fill="url(#a)" d="M174.887,391.5h-7.181a.655.655,0,1,0,0,1.31h7.181a.655.655,0,1,0,0-1.31Z" transform="translate(8.551 25.653) translate(-167.05 -391.5)"/></g></svg>