<svg xmlns="http://www.w3.org/2000/svg" xmlns:xlink="http://www.w3.org/1999/xlink" width="24.104" height="25.771" viewBox="0 0 24.104 25.771"><defs><linearGradient id="a" x1=".5" x2=".5" y2="1" gradientUnits="objectBoundingBox"><stop offset="0" stop-color="#40454a"/><stop offset="1" stop-color="#1c5792"/></linearGradient></defs><path fill="url(#a)" d="M39.889,2.423a.781.781,0,0,0,.78-.78V.78a.781.781,0,0,0-.78-.78H17.346a.781.781,0,0,0-.78.78v.862a.781.781,0,0,0,.78.78H17.4v2.2a.378.378,0,0,0,.755,0v-2.2H39.081V17.511H18.155V6.136a.378.378,0,1,0-.755,0V17.511h-.054a.781.781,0,0,0-.78.78v.862a.781.781,0,0,0,.78.78h2.435L18.4,24.758a.795.795,0,0,0,.764,1.013H20.8a.8.8,0,0,0,.764-.576l.312-1.092h5.115v.873a.8.8,0,0,0,.794.794h1.668a.8.8,0,0,0,.794-.794V24.1h5.115l.312,1.092a.8.8,0,0,0,.764.576h1.634a.795.795,0,0,0,.764-1.013l-1.381-4.824h2.435a.781.781,0,0,0,.78-.78v-.862a.781.781,0,0,0-.78-.78h-.054V2.423ZM20.8,25.016H19.164a.039.039,0,0,1-.038-.05l1.437-5.022H22.28l-1.444,5.044a.04.04,0,0,1-.038.029Zm8.693-.039a.039.039,0,0,1-.039.039H27.784a.039.039,0,0,1-.039-.039V24.1h1.747Zm-7.4-1.628.261-.913H34.883l.261.913Zm7.4-3.4v1.737H27.745V19.944ZM38.1,25a.037.037,0,0,1-.032.016H36.437a.04.04,0,0,1-.038-.029l-1.444-5.044h1.716l1.437,5.022A.037.037,0,0,1,38.1,25Zm-3.435-3.32H30.246V19.934h3.921Zm5.247-3.389v.862a.025.025,0,0,1-.025.025H25.311a.378.378,0,0,0,0,.755H26.99v1.747H22.568l.5-1.747H23.8a.378.378,0,0,0,0-.755H17.346a.025.025,0,0,1-.025-.025v-.862a.025.025,0,0,1,.025-.025H39.889a.025.025,0,0,1,.025.025ZM17.346,1.668a.025.025,0,0,1-.025-.025V.78a.025.025,0,0,1,.025-.025H39.889a.025.025,0,0,1,.025.025v.862a.025.025,0,0,1-.025.025Z" transform="translate(-16.566 0)"/><path fill="url(#a)" d="M115.967,282.844a1.211,1.211,0,1,0,1.211-1.211,1.213,1.213,0,0,0-1.211,1.211Zm1.211-.456a.456.456,0,1,1-.456.456A.457.457,0,0,1,117.178,282.388Z" transform="translate(-110.964 -267.457)"/><path fill="url(#a)" d="M349.111,69.276a1.211,1.211,0,1,0-1.211-1.211A1.213,1.213,0,0,0,349.111,69.276Zm0-1.668a.456.456,0,1,1-.456.456A.457.457,0,0,1,349.111,67.608Z" transform="translate(-331.222 -63.488)"/><path fill="url(#a)" d="M132.533,233.144a.378.378,0,0,0,.755,0v-.834a.378.378,0,1,0-.755,0Z" transform="translate(-126.696 -220.259)"/><path fill="url(#a)" d="M132.911,183.823a.377.377,0,0,0,.378-.378v-.834a.378.378,0,0,0-.755,0v.834A.378.378,0,0,0,132.911,183.823Z" transform="translate(-126.696 -173.061)"/><path fill="url(#a)" d="M116.077,118.28a.378.378,0,0,0,.534,0l.567-.567.567.567a.378.378,0,0,0,.534-.534l-.567-.567.567-.567a.378.378,0,1,0-.534-.534l-.567.567-.567-.567a.378.378,0,1,0-.534.534l.567.567-.567.567A.377.377,0,0,0,116.077,118.28Z" transform="translate(-110.963 -110.131)"/><path fill="url(#a)" d="M217.679,223.76a.378.378,0,0,0-.534,0l-.567.567-.567-.567a.378.378,0,0,0-.534.534l.567.567-.567.567a.378.378,0,0,0,.534.534l.567-.567.567.567a.378.378,0,0,0,.534-.534l-.567-.567.567-.567A.378.378,0,0,0,217.679,223.76Z" transform="translate(-205.361 -212.393)"/><path fill="url(#a)" d="M350.212,223.76a.377.377,0,0,0-.534,0l-.567.567-.567-.567a.378.378,0,1,0-.534.534l.567.567-.567.567a.378.378,0,0,0,.534.534l.567-.567.567.567a.378.378,0,0,0,.534-.534l-.567-.567.567-.567A.378.378,0,0,0,350.212,223.76Z" transform="translate(-331.223 -212.393)"/><path fill="url(#a)" d="M166.045,134.66a.378.378,0,1,0,0,.755h10.007a.377.377,0,0,0,.378-.378v-1.61l.189.189a.378.378,0,0,0,.534-.534l-.834-.834a.378.378,0,0,0-.534,0l-.834.834a.378.378,0,0,0,.534.534l.189-.189v1.233h-9.629Z" transform="translate(-158.162 -125.487)"/></svg>