<svg xmlns="http://www.w3.org/2000/svg" xmlns:xlink="http://www.w3.org/1999/xlink" width="31.546" height="26.814" viewBox="0 0 31.546 26.814"><defs><linearGradient id="a" x1=".5" x2=".5" y2="1" gradientUnits="objectBoundingBox"><stop offset="0" stop-color="#575c60"/><stop offset="1" stop-color="#1462af"/></linearGradient></defs><path fill="url(#a)" d="M26.814,5.758H19.454V5.232A4.737,4.737,0,0,0,14.722.5H4.732A4.737,4.737,0,0,0,0,5.232v6.309a4.737,4.737,0,0,0,4.732,4.732h.526v4.206a.526.526,0,0,0,.9.372l4.578-4.578h1.36V16.8a4.737,4.737,0,0,0,4.732,4.732h2.937l5.629,5.629a.526.526,0,0,0,.9-.372V21.531h.526A4.737,4.737,0,0,0,31.546,16.8V10.49a4.737,4.737,0,0,0-4.732-4.732Zm-16.3,9.464a.526.526,0,0,0-.372.154L6.309,19.21V15.747a.526.526,0,0,0-.526-.526H4.732a3.685,3.685,0,0,1-3.68-3.68V5.232a3.685,3.685,0,0,1,3.68-3.68h9.99a3.685,3.685,0,0,1,3.68,3.68v.526H16.825a4.737,4.737,0,0,0-4.732,4.732v4.732ZM30.495,16.8a3.685,3.685,0,0,1-3.68,3.68H25.763a.526.526,0,0,0-.526.526v4.514l-4.886-4.886a.526.526,0,0,0-.372-.154H16.825a3.685,3.685,0,0,1-3.68-3.68V10.49a3.685,3.685,0,0,1,3.68-3.68h9.99a3.685,3.685,0,0,1,3.68,3.68Zm0,0" transform="translate(0 -0.5)"/><path fill="url(#a)" d="M244.619,144.5H232.526a.526.526,0,1,0,0,1.052h12.093a.526.526,0,1,0,0-1.052Zm0,0" transform="translate(-216.753 -135.036)"/><path fill="url(#a)" d="M244.619,192.5H232.526a.526.526,0,1,0,0,1.052h12.093a.526.526,0,1,0,0-1.052Zm0,0" transform="translate(-216.753 -179.881)"/><path fill="url(#a)" d="M244.619,240.5H232.526a.526.526,0,1,0,0,1.052h12.093a.526.526,0,1,0,0-1.052Zm0,0" transform="translate(-216.753 -224.727)"/><path fill="url(#a)" d="M40.526,65.552H51.567a.526.526,0,1,0,0-1.052H40.526a.526.526,0,0,0,0,1.052Zm0,0" transform="translate(-37.371 -60.294)"/><path fill="url(#a)" d="M48.412,112.5H40.526a.526.526,0,0,0,0,1.052h7.887a.526.526,0,1,0,0-1.052Zm0,0" transform="translate(-37.371 -105.139)"/><path fill="url(#a)" d="M47.887,160.5H40.526a.526.526,0,1,0,0,1.052h7.361a.526.526,0,0,0,0-1.052Zm0,0" transform="translate(-37.371 -149.985)"/></svg>