<svg xmlns="http://www.w3.org/2000/svg" xmlns:xlink="http://www.w3.org/1999/xlink" width="32.787" height="32.787" viewBox="0 0 32.787 32.787"><defs><linearGradient id="a" x1=".5" x2=".5" y2="1" gradientUnits="objectBoundingBox"><stop offset="0" stop-color="#6a5b5b"/><stop offset="1" stop-color="#164bb4"/></linearGradient></defs><path fill="url(#a)" d="M27.759,45a4.759,4.759,0,1,0,4.759,4.759A4.765,4.765,0,0,0,27.759,45Zm-2.022,7.857a2.108,2.108,0,0,1,4.043,0,3.683,3.683,0,0,1-4.043,0Zm.964-3.626a1.058,1.058,0,1,1,1.058,1.058A1.059,1.059,0,0,1,26.7,49.231Zm3.915,2.879a3.19,3.19,0,0,0-1.334-1.419,2.115,2.115,0,1,0-3.047,0A3.19,3.19,0,0,0,24.9,52.111a3.7,3.7,0,1,1,5.715,0Z" transform="translate(-11.366 -21.732)"/><path fill="url(#a)" d="M17.394,1A4.751,4.751,0,0,0,12.97,7.5a2.607,2.607,0,0,0-.864-.158,1.589,1.589,0,0,0-1.586,1.586V10.24a2.78,2.78,0,0,1-1.343,2.371A3.824,3.824,0,0,0,7.517,14.68l-.012.037L1,14.175v9.036H17.394a1.581,1.581,0,0,0,1.47-2.176,1.573,1.573,0,0,0,.762-2.583,1.562,1.562,0,0,0,0-2.115,1.58,1.58,0,0,0-1.173-2.644H15.807a1.059,1.059,0,0,1-1.058-1.058V9.99a2.6,2.6,0,0,0-.03-.3A4.759,4.759,0,1,0,17.394,1ZM7.346,22.153H2.058V15.324l5.288.441Zm8.461-7.4h2.645a.529.529,0,0,1,0,1.058h-3.7v1.058h3.7a.529.529,0,1,1,0,1.058h-3.7V18.98h3.7a.529.529,0,1,1,0,1.058h-3.7V21.1h2.644a.529.529,0,0,1,0,1.058H8.4V15.364l.117-.349a2.763,2.763,0,0,1,1.2-1.5,3.843,3.843,0,0,0,1.856-3.278V8.933a.53.53,0,0,1,.529-.529,1.588,1.588,0,0,1,1.586,1.586v2.644A2.117,2.117,0,0,0,15.807,14.75Zm1.586-5.288a3.7,3.7,0,1,1,3.7-3.7A3.706,3.706,0,0,1,17.394,9.461Z" transform="translate(-1 -1)"/><path fill="url(#a)" d="M49.759,23a4.759,4.759,0,1,0,4.759,4.759A4.765,4.765,0,0,0,49.759,23Zm0,8.461a3.7,3.7,0,1,1,3.7-3.7A3.706,3.706,0,0,1,49.759,31.461Z" transform="translate(-21.732 -11.366)"/><path fill="url(#a)" d="M53.231,28.058v2.115H52.173V27H51.115v3.173H50.058V29.115H49v2.115h5.288V28.058Z" transform="translate(-23.616 -13.25)"/><path fill="url(#a)" d="M31,9h1.058v1.058H31Z" transform="translate(-15.135 -4.769)"/><path fill="url(#a)" d="M35,9h1.058v1.058H35Z" transform="translate(-17.02 -4.769)"/><path fill="url(#a)" d="M27,9h1.058v1.058H27Z" transform="translate(-13.25 -4.769)"/><path fill="url(#a)" d="M48.169,13.347l.707,1.126.789-3.947-1.037-.208-.283,1.419a13.688,13.688,0,0,0-5.32-4.208l-.448.958A12.571,12.571,0,0,1,48.169,13.347Z" transform="translate(-20.589 -4.076)"/><path fill="url(#a)" d="M7.528,14.661l.959.448a12.572,12.572,0,0,1,4.86-5.593l1.125-.706-3.947-.79-.207,1.037,1.419.284A13.682,13.682,0,0,0,7.528,14.661Z" transform="translate(-4.076 -4.308)"/><path fill="url(#a)" d="M9.516,44.466,8.809,43.34,8.02,47.287l1.037.208.283-1.419a13.688,13.688,0,0,0,5.32,4.208l.448-.958A12.57,12.57,0,0,1,9.516,44.466Z" transform="translate(-4.308 -20.949)"/><path fill="url(#a)" d="M50.285,43.024l-.959-.448a12.572,12.572,0,0,1-4.86,5.593l-1.125.706,3.947.79.208-1.037-1.419-.284a13.68,13.68,0,0,0,4.208-5.319Z" transform="translate(-20.95 -20.589)"/></svg>