<svg xmlns="http://www.w3.org/2000/svg" width="31.243" height="31.243" viewBox="0 0 31.243 31.243"><path d="M27.9,0H3.347A3.347,3.347,0,0,0,0,3.349V21.2A3.347,3.347,0,0,0,3.347,24.55H7.309L6.7,30.006a1.116,1.116,0,0,0,1.856.952l7.121-6.408H27.9A3.347,3.347,0,0,0,31.243,21.2V3.349A3.347,3.347,0,0,0,27.9,0Zm1.116,21.2A1.116,1.116,0,0,1,27.9,22.318H15.25a1.116,1.116,0,0,0-.747.287L9.243,27.34l.421-3.782a1.116,1.116,0,0,0-1.109-1.24H3.347A1.116,1.116,0,0,1,2.232,21.2V3.349A1.116,1.116,0,0,1,3.347,2.234H27.9a1.116,1.116,0,0,1,1.116,1.116V21.2Z" transform="translate(0 -0.002)" fill="#259bf9"/><path d="M247.7,789.148l6.428,4.668,5.934-10.58" transform="translate(-238.198 -776.736)" fill="none" stroke="#259bf9" stroke-width="2"/></svg>