<svg xmlns="http://www.w3.org/2000/svg" width="31.913" height="31.933" viewBox="0 0 31.913 31.933"><path d="M202.822,119.228a3.143,3.143,0,1,0-3.143-3.143A3.137,3.137,0,0,0,202.822,119.228Zm0-5.271A2.167,2.167,0,0,1,205,116.133a2.126,2.126,0,0,1-2.176,2.128,2.167,2.167,0,0,1-2.176-2.176A2.126,2.126,0,0,1,202.822,113.957Z" transform="translate(-186.865 -105.689)" fill="#259bf9"/><path d="M180.634,216.094h-2.176a3.653,3.653,0,0,0-3.627,3.627v1.112a.457.457,0,0,0,.484.484h8.414a.457.457,0,0,0,.483-.484v-1.112A3.55,3.55,0,0,0,180.634,216.094Zm2.708,4.255h-7.495v-.629a2.683,2.683,0,0,1,2.659-2.659h2.176a2.683,2.683,0,0,1,2.659,2.659Z" transform="translate(-163.614 -202.217)" fill="#259bf9"/><path d="M27.387,6.286a3.143,3.143,0,1,0-3.143-3.143A3.137,3.137,0,0,0,27.387,6.286Zm0-5.319a2.176,2.176,0,1,1-2.176,2.176A2.2,2.2,0,0,1,27.387.967Z" transform="translate(-22.697)" fill="#259bf9"/><path d="M378.258,6.286a3.143,3.143,0,1,0-3.143-3.143A3.137,3.137,0,0,0,378.258,6.286Zm0-5.319a2.176,2.176,0,1,1-2.176,2.176A2.167,2.167,0,0,1,378.258.967Z" transform="translate(-351.035)" fill="#259bf9"/><path d="M28.437,87.033H26.261A3.631,3.631,0,0,0,22.876,89.4,8.378,8.378,0,0,0,11.755,87.13a9.048,9.048,0,0,0-2.466,2.224A3.681,3.681,0,0,0,5.9,86.985H3.776A3.653,3.653,0,0,0,.15,90.612v1.112a.457.457,0,0,0,.484.484h7.35a8.315,8.315,0,0,0,12.04,9.284l1.112,1.837-1.4.822a.711.711,0,0,0-.242.29.545.545,0,0,0,.048.387l4.013,6.528a2.063,2.063,0,0,0,2.853.677l.87-.532a2.053,2.053,0,0,0,.677-2.853l-3.965-6.431a.476.476,0,0,0-.677-.145l-1.4.822-1.161-1.837a8.234,8.234,0,0,0,3.336-8.8H31.58a.457.457,0,0,0,.484-.484V90.66A3.591,3.591,0,0,0,28.437,87.033Zm-4.98,16.1,3.723,6.044a1.054,1.054,0,0,1-.387,1.5l-.87.532a1.162,1.162,0,0,1-1.547-.387l-3.723-6.044ZM8.273,91.24H1.117v-.629a2.652,2.652,0,0,1,2.659-2.659H5.952a2.642,2.642,0,0,1,2.611,2.659C8.467,90.8,8.37,91.047,8.273,91.24Zm11.653,9.236A7.41,7.41,0,0,1,9.772,98.01a7.287,7.287,0,0,1,2.466-10.058,7.454,7.454,0,0,1,10.154,2.466A7.236,7.236,0,0,1,19.927,100.476ZM31.1,91.24h-7.2c-.1-.193-.145-.387-.242-.629a2.642,2.642,0,0,1,2.611-2.659h2.176A2.683,2.683,0,0,1,31.1,90.612v.629Z" transform="translate(-0.15 -80.409)" fill="#259bf9"/></svg>