<svg xmlns="http://www.w3.org/2000/svg" width="34.535" height="35.681" viewBox="0 0 34.535 35.681"><g transform="translate(-16 -8.099)"><path d="M45.983,12.643A15.546,15.546,0,0,0,20.144,28.226l-3.311-1.656a.576.576,0,1,0-.515,1.03l4.6,2.3a.576.576,0,0,0,.664-.108l3.453-3.454a.576.576,0,1,0-.814-.814L21.4,28.356a14.392,14.392,0,1,1,13.6,9.666.576.576,0,1,0,0,1.151,15.541,15.541,0,0,0,10.989-26.53Z" fill="#259bf9"/><path d="M288.051,165.417a.576.576,0,0,0,.524.338h3.453v1.727a.576.576,0,1,0,1.151,0v-1.727h1.151a.576.576,0,1,0,0-1.151H293.18v-4.029a.576.576,0,0,0-1.009-.379l-4.029,4.6A.576.576,0,0,0,288.051,165.417Zm3.978-3.311v2.5h-2.185Z" transform="translate(-252.43 -140.972)" fill="#259bf9"/><path d="M176.043,167.7a.576.576,0,0,0,.532.355h5.756a.576.576,0,0,0,0-1.151h-4.366l4.2-4.2a.576.576,0,0,0,.169-.407,2.95,2.95,0,0,0-5.756,0,.576.576,0,0,0,1.151,0c0-.624.791-1.151,1.727-1.151a1.714,1.714,0,0,1,1.7.943l-4.982,4.982A.576.576,0,0,0,176.043,167.7Z" transform="translate(-148.488 -140.972)" fill="#259bf9"/><path d="M406.426,127.84a.576.576,0,1,0-.959.637c.2.3.389.619.559.939a.576.576,0,1,0,1.018-.538C406.856,128.524,406.648,128.174,406.426,127.84Z" transform="translate(-361.356 -110.887)" fill="#259bf9"/><path d="M426.687,171.33a.576.576,0,1,0-1.1.324,10.923,10.923,0,0,1,.254,1.062.576.576,0,0,0,1.132-.211A12.058,12.058,0,0,0,426.687,171.33Z" transform="translate(-380.092 -151.103)" fill="#259bf9"/><path d="M287.516,56.741c-.394-.073-.8-.128-1.2-.162a.576.576,0,1,0-.1,1.147c.362.031.727.08,1.083.146a.576.576,0,1,0,.211-1.132Z" transform="translate(-250.291 -44.99)" fill="#259bf9"/><path d="M394.614,308.246a.576.576,0,0,0,.811-.069c.259-.307.5-.63.731-.961a.576.576,0,1,0-.95-.651c-.205.3-.428.592-.662.871A.576.576,0,0,0,394.614,308.246Z" transform="translate(-351.183 -276.76)" fill="#259bf9"/><path d="M420.563,263.3a.576.576,0,0,0-.719.38,10.915,10.915,0,0,1-.375,1.026.576.576,0,1,0,1.06.448,12.057,12.057,0,0,0,.414-1.135A.576.576,0,0,0,420.563,263.3Z" transform="translate(-374.397 -236.815)" fill="#259bf9"/><path d="M156.713,95.211c-.3.263-.6.544-.872.836a.576.576,0,0,0,.837.791c.249-.264.515-.518.789-.756a.576.576,0,0,0-.754-.87Z" transform="translate(-129.633 -80.715)" fill="#259bf9"/><path d="M333.535,69.274a.576.576,0,0,0,.538-1.018,12.032,12.032,0,0,0-1.1-.51.576.576,0,1,0-.433,1.067A10.914,10.914,0,0,1,333.535,69.274Z" transform="translate(-293.436 -55.317)" fill="#259bf9"/><path d="M432.362,217.781c.039-.4.059-.8.059-1.205a.576.576,0,0,0-1.151,0c0,.364-.018.731-.054,1.092a.576.576,0,0,0,.516.629l.058,0A.576.576,0,0,0,432.362,217.781Z" transform="translate(-385.34 -192.943)" fill="#259bf9"/><path d="M267.91,375.627h-.016a.576.576,0,0,0-.016,1.151c.114,0,.23,0,.345,0,.287,0,.577-.01.862-.03A.576.576,0,1,0,269,375.6C268.643,375.63,268.273,375.637,267.91,375.627Z" transform="translate(-233.229 -341.063)" fill="#259bf9"/><path d="M129.474,133.251a10.92,10.92,0,0,1,.531-.955.576.576,0,1,0-.977-.61c-.212.34-.41.7-.588,1.056a.576.576,0,0,0,1.033.509Z" transform="translate(-104.296 -114.445)" fill="#259bf9"/><path d="M374.228,92.265a.576.576,0,1,0-.729.891,10.925,10.925,0,0,1,.81.734.576.576,0,1,0,.814-.814C374.84,92.793,374.539,92.52,374.228,92.265Z" transform="translate(-331.581 -77.99)" fill="#259bf9"/><path d="M359.658,341.429c-.284.226-.583.44-.888.637a.576.576,0,0,0,.623.968c.337-.217.667-.454.981-.7a.576.576,0,0,0-.716-.9Z" transform="translate(-317.863 -309.232)" fill="#259bf9"/><path d="M316.341,365.18a10.88,10.88,0,0,1-1.037.345.576.576,0,1,0,.308,1.109,12.031,12.031,0,0,0,1.147-.381.576.576,0,0,0-.418-1.073Z" transform="translate(-277.378 -331.354)" fill="#259bf9"/><path d="M238.554,58.365a.581.581,0,0,0,.122-.013,10.921,10.921,0,0,1,1.078-.177.576.576,0,1,0-.13-1.144c-.4.045-.8.111-1.192.2a.576.576,0,0,0,.121,1.138Z" transform="translate(-206.007 -45.408)" fill="#259bf9"/><path d="M114.9,175.331a.576.576,0,0,0-.7.411,12.073,12.073,0,0,0-.247,1.183.576.576,0,1,0,1.137.179,10.919,10.919,0,0,1,.223-1.069A.576.576,0,0,0,114.9,175.331Z" transform="translate(-90.9 -155.183)" fill="#259bf9"/><path d="M193.895,71.149a.573.573,0,0,0,.283-.075c.317-.179.645-.344.977-.49a.576.576,0,0,0-.464-1.054,12.073,12.073,0,0,0-1.08.541.576.576,0,0,0,.284,1.077Z" transform="translate(-164.561 -56.967)" fill="#259bf9"/><path d="M74.912,322.361H65.7a1.728,1.728,0,1,0,1.628,1.151h4.8a1.727,1.727,0,1,0,3.232-.061,1.727,1.727,0,0,0,.221-3.255l1.034-5.169.433-1.875h1.312a.576.576,0,0,0,0-1.151H76.639a.576.576,0,0,0-.546.394l-.444,1.909h-11.1a.576.576,0,0,0-.564.688l1.151,5.756a.576.576,0,0,0,.564.463h9.209a.576.576,0,0,1,0,1.151Zm-9.209,2.3a.576.576,0,1,1,.576-.576A.576.576,0,0,1,65.7,324.663Zm8.058,0a.576.576,0,1,1,.576-.576A.576.576,0,0,1,73.761,324.663ZM65.6,317.18l-.345-1.727h1.655l.173,1.727Zm.576,2.878-.345-1.727H67.2l.173,1.727Zm3.557,0H68.526l-.173-1.727h1.379Zm0-2.878H68.238l-.173-1.727h1.666Zm2.357,2.878H70.883v-1.727h1.379Zm.288-2.878H70.883v-1.727H72.55Zm2.064,2.878H73.246l.173-1.727h1.367Zm.576-2.878H73.534l.173-1.727h1.655Z" transform="translate(-44.523 -282.036)" fill="#259bf9"/></g></svg>