<svg xmlns="http://www.w3.org/2000/svg" xmlns:xlink="http://www.w3.org/1999/xlink" width="62.484" height="62.482" viewBox="0 0 62.484 62.482"><defs><linearGradient id="a" x1="0.5" x2="0.5" y2="1" gradientUnits="objectBoundingBox"><stop offset="0" stop-color="#606a74"/><stop offset="1" stop-color="#0c62b8"/></linearGradient></defs><g transform="translate(-25.4 -25.401)"><path d="M177.418,187.51a.759.759,0,0,1-.538-.223l-16.275-16.275a.761.761,0,0,1,1.076-1.076l16.275,16.275a.761.761,0,0,1-.538,1.3Z" transform="translate(-93.887 -100.376)" fill="url(#a)"/><path d="M79.128,77.675a4.008,4.008,0,0,0-2.737,1.081l-4.557-3.336a3.977,3.977,0,0,0,0-3.438l4.557-3.336a4.041,4.041,0,1,0-.9-1.228l-4.557,3.335a4.028,4.028,0,1,0,0,5.893l4.557,3.336a4.025,4.025,0,1,0,3.637-2.309Zm0-14.48A2.506,2.506,0,1,1,76.623,65.7,2.509,2.509,0,0,1,79.128,63.195ZM68.2,76.208A2.506,2.506,0,1,1,70.7,73.7,2.509,2.509,0,0,1,68.2,76.208Zm10.931,8A2.506,2.506,0,1,1,81.634,81.7,2.509,2.509,0,0,1,79.128,84.209Z" transform="translate(-26.966 -25.229)" fill="url(#a)"/><g transform="translate(25.4 25.401)"><path d="M71.555,48.473A23.065,23.065,0,1,0,64.794,64.8,22.932,22.932,0,0,0,71.555,48.473ZM33.226,63.719a21.561,21.561,0,1,1,30.492,0A21.586,21.586,0,0,1,33.226,63.719Z" transform="translate(-25.4 -25.401)" fill="url(#a)"/><path d="M172.794,164.628,162.156,153.99a5.23,5.23,0,0,0-3.724-1.543c-.134,0-.266.009-.4.019l-2.55-2.55a.761.761,0,0,0-1.076,1.076l1.9,1.9a5.258,5.258,0,0,0-1.6,1.094l-.719.719a5.226,5.226,0,0,0-1.091,1.6l-1.906-1.906a.761.761,0,0,0-1.076,1.076l2.553,2.552a5.253,5.253,0,0,0,1.521,4.12l10.638,10.638a5.272,5.272,0,0,0,7.448,0l.718-.718a5.267,5.267,0,0,0,0-7.448ZM171.717,171l-.718.718a3.749,3.749,0,0,1-5.3,0l-10.638-10.638a3.749,3.749,0,0,1,0-5.3l.719-.719a3.744,3.744,0,0,1,5.295,0L171.717,165.7a3.745,3.745,0,0,1,0,5.3Z" transform="translate(-111.852 -111.852)" fill="url(#a)"/><path d="M71.425,44.747a18.864,18.864,0,1,0,0,26.678A18.741,18.741,0,0,0,71.425,44.747Zm-1.076,25.6a17.334,17.334,0,1,1,0-24.526A17.362,17.362,0,0,1,70.349,70.349Z" transform="translate(-35.014 -35.014)" fill="url(#a)"/></g></g></svg>