<svg xmlns="http://www.w3.org/2000/svg" xmlns:xlink="http://www.w3.org/1999/xlink" width="55.088" height="66.464" viewBox="0 0 55.088 66.464"><defs><linearGradient id="a" x1="0.5" x2="0.5" y2="1" gradientUnits="objectBoundingBox"><stop offset="0" stop-color="#575c60"/><stop offset="1" stop-color="#13569a"/></linearGradient></defs><g transform="translate(-36.55)"><g transform="translate(36.55 24.354)"><path d="M45.42,156.5a8.87,8.87,0,1,0,8.87,8.87A8.866,8.866,0,0,0,45.42,156.5Zm0,14.628a5.758,5.758,0,1,1,5.758-5.758A5.755,5.755,0,0,1,45.42,171.128Z" transform="translate(-36.55 -156.5)" fill="url(#a)"/></g><g transform="translate(56.858 26.844)"><path d="M200.274,172.5H168.606a1.556,1.556,0,1,0,0,3.112h31.668a1.556,1.556,0,1,0,0-3.112Z" transform="translate(-167.05 -172.5)" fill="url(#a)"/></g><g transform="translate(56.858 36.492)"><path d="M185.662,234.5H168.606a1.556,1.556,0,0,0,0,3.112h17.056a1.556,1.556,0,0,0,0-3.112Z" transform="translate(-167.05 -234.5)" fill="url(#a)"/></g><g transform="translate(36.55)"><path d="M45.42,0a8.87,8.87,0,1,0,8.87,8.87A8.866,8.866,0,0,0,45.42,0Zm0,14.612a5.758,5.758,0,1,1,5.758-5.758A5.755,5.755,0,0,1,45.42,14.612Z" transform="translate(-36.55)" fill="url(#a)"/></g><g transform="translate(56.858 2.412)"><path d="M200.274,15.5H168.606a1.556,1.556,0,1,0,0,3.112h31.668a1.556,1.556,0,1,0,0-3.112Z" transform="translate(-167.05 -15.5)" fill="url(#a)"/></g><g transform="translate(56.858 12.216)"><path d="M185.662,78.5H168.606a1.556,1.556,0,1,0,0,3.112h17.056a1.556,1.556,0,1,0,0-3.112Z" transform="translate(-167.05 -78.5)" fill="url(#a)"/></g><g transform="translate(36.55 48.723)"><path d="M45.42,313.1a8.87,8.87,0,1,0,8.87,8.87A8.866,8.866,0,0,0,45.42,313.1Zm0,14.612a5.758,5.758,0,1,1,5.758-5.758A5.755,5.755,0,0,1,45.42,327.712Z" transform="translate(-36.55 -313.1)" fill="url(#a)"/></g><g transform="translate(56.858 51.12)"><path d="M200.274,328.5H168.606a1.556,1.556,0,1,0,0,3.112h31.668a1.556,1.556,0,1,0,0-3.112Z" transform="translate(-167.05 -328.5)" fill="url(#a)"/></g><g transform="translate(56.858 60.924)"><path d="M185.662,391.5H168.606a1.556,1.556,0,1,0,0,3.112h17.056a1.556,1.556,0,1,0,0-3.112Z" transform="translate(-167.05 -391.5)" fill="url(#a)"/></g></g></svg>