<svg xmlns="http://www.w3.org/2000/svg" xmlns:xlink="http://www.w3.org/1999/xlink" width="65.5" height="70.032" viewBox="0 0 65.5 70.032"><defs><linearGradient id="a" x1="0.5" x2="0.5" y2="1" gradientUnits="objectBoundingBox"><stop offset="0" stop-color="#40454a"/><stop offset="1" stop-color="#1c5792"/></linearGradient></defs><g transform="translate(-16.566)"><path d="M79.946,6.584a2.122,2.122,0,0,0,2.12-2.12V2.12A2.122,2.122,0,0,0,79.946,0H18.686a2.122,2.122,0,0,0-2.12,2.12V4.464a2.122,2.122,0,0,0,2.12,2.12h.146V12.57a1.026,1.026,0,1,0,2.052,0V6.584H77.748v41H20.884V16.674a1.026,1.026,0,1,0-2.052,0V47.586h-.146a2.122,2.122,0,0,0-2.12,2.12V52.05a2.122,2.122,0,0,0,2.12,2.12H25.3L21.551,67.279a2.159,2.159,0,0,0,2.076,2.753h4.441a2.168,2.168,0,0,0,2.076-1.565l.849-2.967h13.9v2.373a2.161,2.161,0,0,0,2.159,2.159h4.532a2.161,2.161,0,0,0,2.159-2.159V65.5h13.9l.849,2.967a2.168,2.168,0,0,0,2.076,1.565h4.441a2.159,2.159,0,0,0,2.076-2.753L73.329,54.17h6.617a2.122,2.122,0,0,0,2.12-2.12V49.706a2.122,2.122,0,0,0-2.12-2.12H79.8v-41ZM28.068,67.98H23.627a.107.107,0,0,1-.1-.137L27.429,54.2h4.664L28.171,67.9a.108.108,0,0,1-.1.078Zm23.622-.107a.107.107,0,0,1-.107.107H47.05a.107.107,0,0,1-.107-.107V65.5h4.746ZM31.58,63.448l.71-2.48H66.342l.71,2.48ZM51.689,54.2v4.72H46.943V54.2Zm23.4,13.741a.1.1,0,0,1-.086.043H70.564a.108.108,0,0,1-.1-.078L66.539,54.2H71.2l3.906,13.647A.1.1,0,0,1,75.091,67.937Zm-9.336-9.021H53.741V54.17H64.4Zm14.259-9.21V52.05a.069.069,0,0,1-.068.068H40.33a1.026,1.026,0,0,0,0,2.052h4.562v4.746H32.877l1.358-4.746h1.991a1.026,1.026,0,0,0,0-2.052H18.686a.069.069,0,0,1-.068-.068V49.706a.069.069,0,0,1,.068-.068h61.26a.069.069,0,0,1,.069.068ZM18.686,4.532a.069.069,0,0,1-.068-.068V2.12a.069.069,0,0,1,.068-.068h61.26a.069.069,0,0,1,.068.068V4.464a.069.069,0,0,1-.068.068Z" fill="url(#a)"/><path d="M115.967,284.925a3.292,3.292,0,1,0,3.292-3.292,3.3,3.3,0,0,0-3.292,3.292Zm3.292-1.24a1.24,1.24,0,1,1-1.24,1.24A1.241,1.241,0,0,1,119.259,283.685Z" transform="translate(-85.805 -243.111)" fill="url(#a)"/><path d="M351.192,73.437a3.292,3.292,0,1,0-3.292-3.292A3.3,3.3,0,0,0,351.192,73.437Zm0-4.532a1.24,1.24,0,1,1-1.24,1.24A1.241,1.241,0,0,1,351.192,68.9Z" transform="translate(-286.014 -57.709)" fill="url(#a)"/><path d="M132.533,235.225a1.026,1.026,0,0,0,2.052,0v-2.266a1.026,1.026,0,1,0-2.052,0Z" transform="translate(-100.105 -200.209)" fill="url(#a)"/><path d="M133.559,186.552a1.026,1.026,0,0,0,1.026-1.026V183.26a1.026,1.026,0,0,0-2.052,0v2.266A1.026,1.026,0,0,0,133.559,186.552Z" transform="translate(-100.105 -157.308)" fill="url(#a)"/><path d="M116.267,122.251a1.026,1.026,0,0,0,1.451,0l1.541-1.541,1.541,1.541a1.026,1.026,0,0,0,1.451-1.451l-1.541-1.541,1.541-1.541a1.026,1.026,0,1,0-1.451-1.451l-1.541,1.541-1.541-1.541a1.026,1.026,0,1,0-1.451,1.451l1.541,1.541-1.541,1.541A1.025,1.025,0,0,0,116.267,122.251Z" transform="translate(-85.804 -100.106)" fill="url(#a)"/><path d="M221.651,223.95a1.026,1.026,0,0,0-1.451,0l-1.541,1.541-1.541-1.541a1.026,1.026,0,0,0-1.451,1.451l1.541,1.541-1.541,1.541a1.026,1.026,0,0,0,1.451,1.451l1.541-1.541,1.541,1.541a1.026,1.026,0,1,0,1.451-1.451l-1.541-1.541,1.541-1.541A1.026,1.026,0,0,0,221.651,223.95Z" transform="translate(-171.609 -193.059)" fill="url(#a)"/><path d="M354.184,223.95a1.026,1.026,0,0,0-1.451,0l-1.541,1.541-1.541-1.541A1.026,1.026,0,1,0,348.2,225.4l1.541,1.541-1.541,1.541a1.026,1.026,0,0,0,1.451,1.451l1.541-1.541,1.541,1.541a1.026,1.026,0,0,0,1.451-1.451l-1.541-1.541,1.541-1.541A1.026,1.026,0,0,0,354.184,223.95Z" transform="translate(-286.014 -193.059)" fill="url(#a)"/><path d="M166.693,138.99a1.026,1.026,0,1,0,0,2.052h27.192a1.026,1.026,0,0,0,1.026-1.026v-4.375l.515.515a1.026,1.026,0,1,0,1.451-1.451l-2.266-2.266a1.026,1.026,0,0,0-1.451,0l-2.266,2.266a1.026,1.026,0,0,0,1.451,1.451l.515-.515v3.35H166.693Z" transform="translate(-128.707 -114.064)" fill="url(#a)"/></g></svg>