<svg xmlns="http://www.w3.org/2000/svg" xmlns:xlink="http://www.w3.org/1999/xlink" width="84.118" height="71.5" viewBox="0 0 84.118 71.5"><defs><linearGradient id="a" x1="0.5" x2="0.5" y2="1" gradientUnits="objectBoundingBox"><stop offset="0" stop-color="#575c60"/><stop offset="1" stop-color="#1462af"/></linearGradient></defs><g transform="translate(0 -0.5)"><path d="M71.5,14.52H51.873v-1.4A12.632,12.632,0,0,0,39.255.5H12.618A12.632,12.632,0,0,0,0,13.118V29.941A12.632,12.632,0,0,0,12.618,42.559h1.4V53.775a1.4,1.4,0,0,0,2.393.991L28.62,42.559h3.625v1.4A12.632,12.632,0,0,0,44.863,56.579h7.831L67.705,71.589A1.4,1.4,0,0,0,70.1,70.6V56.579h1.4A12.632,12.632,0,0,0,84.118,43.961V27.137A12.632,12.632,0,0,0,71.5,14.52ZM28.039,39.755a1.4,1.4,0,0,0-.991.411L16.824,50.39V41.157a1.4,1.4,0,0,0-1.4-1.4h-2.8A9.825,9.825,0,0,1,2.8,29.941V13.118A9.825,9.825,0,0,1,12.618,3.3H39.255a9.825,9.825,0,0,1,9.814,9.814v1.4H44.863A12.632,12.632,0,0,0,32.245,27.137V39.755Zm53.275,4.206A9.825,9.825,0,0,1,71.5,53.775H68.7a1.4,1.4,0,0,0-1.4,1.4V67.214L54.266,54.185a1.4,1.4,0,0,0-.991-.411H44.863a9.825,9.825,0,0,1-9.814-9.814V27.137a9.825,9.825,0,0,1,9.814-9.814H71.5a9.825,9.825,0,0,1,9.814,9.814Zm0,0" fill="url(#a)"/><path d="M265.647,144.5H233.4a1.4,1.4,0,1,0,0,2.8h32.245a1.4,1.4,0,1,0,0-2.8Zm0,0" transform="translate(-191.343 -118.765)" fill="url(#a)"/><path d="M265.647,192.5H233.4a1.4,1.4,0,1,0,0,2.8h32.245a1.4,1.4,0,1,0,0-2.8Zm0,0" transform="translate(-191.343 -158.353)" fill="url(#a)"/><path d="M265.647,240.5H233.4a1.4,1.4,0,1,0,0,2.8h32.245a1.4,1.4,0,1,0,0-2.8Zm0,0" transform="translate(-191.343 -197.941)" fill="url(#a)"/><path d="M41.4,67.3H70.843a1.4,1.4,0,1,0,0-2.8H41.4a1.4,1.4,0,1,0,0,2.8Zm0,0" transform="translate(-32.99 -52.784)" fill="url(#a)"/><path d="M62.431,112.5H41.4a1.4,1.4,0,1,0,0,2.8H62.431a1.4,1.4,0,0,0,0-2.8Zm0,0" transform="translate(-32.99 -92.373)" fill="url(#a)"/><path d="M61.029,160.5H41.4a1.4,1.4,0,1,0,0,2.8H61.029a1.4,1.4,0,1,0,0-2.8Zm0,0" transform="translate(-32.99 -131.961)" fill="url(#a)"/></g></svg>