<svg xmlns="http://www.w3.org/2000/svg" xmlns:xlink="http://www.w3.org/1999/xlink" width="70.752" height="70.752" viewBox="0 0 70.752 70.752"><defs><linearGradient id="a" x1="0.5" x2="0.5" y2="1" gradientUnits="objectBoundingBox"><stop offset="0" stop-color="#6a5b5b"/><stop offset="1" stop-color="#164bb4"/></linearGradient></defs><g transform="translate(-1 -1)"><path d="M33.27,45a10.27,10.27,0,1,0,10.27,10.27A10.282,10.282,0,0,0,33.27,45ZM28.908,61.954a4.549,4.549,0,0,1,8.725,0,7.948,7.948,0,0,1-8.725,0Zm2.08-7.825a2.282,2.282,0,1,1,2.282,2.282A2.285,2.285,0,0,1,30.988,54.129Zm8.448,6.214a6.884,6.884,0,0,0-2.878-3.063,4.564,4.564,0,1,0-6.575,0A6.884,6.884,0,0,0,27.1,60.344a7.989,7.989,0,1,1,12.331,0Z" transform="translate(3.105 6.211)" fill="url(#a)"/><path d="M36.376,1a10.251,10.251,0,0,0-9.547,14.034,5.626,5.626,0,0,0-1.865-.34,3.428,3.428,0,0,0-3.423,3.423v2.821a6,6,0,0,1-2.9,5.117,8.253,8.253,0,0,0-3.581,4.465l-.026.08L1,29.431v19.5H36.376a3.411,3.411,0,0,0,3.172-4.7,3.394,3.394,0,0,0,1.643-5.575,3.371,3.371,0,0,0,0-4.565,3.409,3.409,0,0,0-2.532-5.706H32.952a2.285,2.285,0,0,1-2.282-2.282V20.4a5.61,5.61,0,0,0-.065-.639A10.268,10.268,0,1,0,36.376,1ZM14.694,46.646H3.282V31.911l11.412.951ZM32.952,30.67h5.707a1.141,1.141,0,0,1,0,2.282H30.67v2.282h7.988a1.141,1.141,0,0,1,0,2.282H30.67V39.8h7.988a1.141,1.141,0,0,1,0,2.282H30.67v2.282h5.706a1.141,1.141,0,0,1,0,2.282h-19.4V32l.252-.753a5.963,5.963,0,0,1,2.59-3.229,8.292,8.292,0,0,0,4.005-7.074V18.118a1.143,1.143,0,0,1,1.141-1.141A3.428,3.428,0,0,1,28.389,20.4v5.706A4.567,4.567,0,0,0,32.952,30.67Zm3.423-11.412a7.988,7.988,0,1,1,7.988-7.988A8,8,0,0,1,36.376,19.259Z" transform="translate(0 0)" fill="url(#a)"/><path d="M55.27,23a10.27,10.27,0,1,0,10.27,10.27A10.282,10.282,0,0,0,55.27,23Zm0,18.259a7.988,7.988,0,1,1,7.988-7.988A8,8,0,0,1,55.27,41.259Z" transform="translate(6.211 3.105)" fill="url(#a)"/><path d="M58.129,29.282v4.565H55.847V27H53.565v6.847H51.282V31.565H49v4.565H60.412V29.282Z" transform="translate(6.776 3.67)" fill="url(#a)"/><path d="M31,9h2.282v2.282H31Z" transform="translate(4.235 1.129)" fill="url(#a)"/><path d="M35,9h2.282v2.282H35Z" transform="translate(4.799 1.129)" fill="url(#a)"/><path d="M27,9h2.282v2.282H27Z" transform="translate(3.67 1.129)" fill="url(#a)"/><path d="M54.645,20.084l1.525,2.43L57.872,14l-2.238-.448-.612,3.062a29.537,29.537,0,0,0-11.48-9.081L42.576,9.6A27.128,27.128,0,0,1,54.645,20.084Z" transform="translate(5.869 0.921)" fill="url(#a)"/><path d="M7.528,22.35l2.069.967A27.129,27.129,0,0,1,20.084,11.247l2.428-1.523L14,8.02l-.447,2.237,3.062.613A29.525,29.525,0,0,0,7.528,22.35Z" transform="translate(0.921 0.991)" fill="url(#a)"/><path d="M11.247,45.77,9.723,43.34l-1.7,8.518,2.238.448.612-3.062a29.537,29.537,0,0,0,11.48,9.081l.968-2.068A27.125,27.125,0,0,1,11.247,45.77Z" transform="translate(0.991 5.977)" fill="url(#a)"/><path d="M58.326,43.543l-2.069-.967A27.129,27.129,0,0,1,45.769,54.645l-2.428,1.523,8.516,1.7.448-2.238-3.062-.613a29.521,29.521,0,0,0,9.081-11.479Z" transform="translate(5.977 5.869)" fill="url(#a)"/></g></svg>